<svg width="143" height="48" viewBox="0 0 143 48" fill="none" xmlns="http://www.w3.org/2000/svg">
<g opacity="0.75">
<path d="M24 48C37.2548 48 48 37.2548 48 24C48 10.7452 37.2548 0 24 0C10.7452 0 0 10.7452 0 24C0 37.2548 10.7452 48 24 48Z" fill="white"/>
<path d="M22.8596 10.2858V15.6674H26.8161V20.9491H22.8596V30.0621C22.8596 30.8757 23.0043 31.4322 23.2552 31.7626C23.5455 32.1451 23.6999 32.4327 24.8195 32.4327H27.0858V37.7143C25.899 37.7143 24.1003 37.7143 22.9135 37.7143C20.8278 37.7143 19.2874 37.1675 18.2925 36.0738C17.2975 34.9802 16.8 33.3196 16.8 31.0923V10.2858H22.8596Z" fill="#031219"/>
<path d="M32.4905 32.5714C33.8606 32.5714 34.9714 33.6805 34.9714 35.0485C34.9714 35.1114 34.9714 35.1743 34.9714 35.2372C34.9714 36.6053 33.8606 37.7143 32.4905 37.7143C32.4302 37.7143 32.3698 37.7143 32.3094 37.7143C30.9393 37.7143 29.8286 36.6053 29.8286 35.2372V35.0485C29.8286 33.6805 30.9393 32.5714 32.3094 32.5714H32.4905Z" fill="#031219"/>
<path d="M88.2979 26.4827C88.2979 24.887 88.6414 23.4648 89.3286 22.216C90.0156 20.9672 91.0047 20.0009 92.2958 19.3171C93.5869 18.6332 95.0857 18.2913 96.7923 18.2913C99.2193 18.2913 101.2 18.9553 102.735 20.2834C104.27 21.6115 105.126 23.4152 105.303 25.6948L105.337 26.7949C105.337 29.2627 104.566 31.2424 103.026 32.734C101.486 34.2256 99.4188 34.9714 96.8256 34.9714C94.2324 34.9714 92.1628 34.2281 90.6168 32.7415C89.0709 31.2548 88.2979 29.233 88.2979 26.676V26.4827ZM107.548 26.4827C107.548 24.887 107.891 23.4648 108.578 22.216C109.265 20.9672 110.254 20.0009 111.545 19.3171C112.836 18.6332 114.335 18.2913 116.042 18.2913C118.469 18.2913 120.45 18.9553 121.985 20.2834C123.52 21.6115 124.376 23.4152 124.553 25.6948L124.586 26.7949C124.586 29.2627 123.816 31.2424 122.276 32.734C120.735 34.2256 118.668 34.9714 116.075 34.9714C113.482 34.9714 111.412 34.2281 109.866 32.7415C108.32 31.2548 107.548 29.233 107.548 26.676V26.4827ZM75.6008 16.6411H68.1869V34.6741H63.1999V16.6411H55.8857V13.0286H75.6008V16.6411ZM87.2696 22.6174C86.6158 22.5381 86.0395 22.4985 85.5409 22.4985C83.7234 22.4985 82.532 23.0486 81.9669 24.1486V34.6741H77.1628V18.5886H81.7009L81.8339 20.5064C82.798 19.0296 84.1334 18.2913 85.8401 18.2913C86.372 18.2913 86.8707 18.3557 87.3362 18.4845L87.2696 22.6174ZM131.967 18.5886L132.117 20.4469C133.402 19.0098 135.125 18.2913 137.286 18.2913C139.192 18.2913 140.611 18.7918 141.542 19.7928C142.473 20.7938 142.949 22.2903 142.971 24.2825V34.6741H138.167V24.3865C138.167 23.4747 137.946 22.8132 137.502 22.4018C137.059 21.9905 136.322 21.7849 135.292 21.7849C133.94 21.7849 132.926 22.3003 132.25 23.331V34.6741H127.445V18.5886H131.967ZM93.102 26.7877C93.102 28.3163 93.4234 29.4851 94.0662 30.2941C94.7089 31.1031 95.6287 31.5076 96.8256 31.5076C97.9892 31.5076 98.8979 31.108 99.5518 30.309C100.206 29.5099 100.533 28.2319 100.533 26.475C100.533 24.9761 100.206 23.8148 99.5518 22.9909C98.8979 22.1671 97.9781 21.7551 96.7923 21.7551C95.6177 21.7551 94.7089 22.1646 94.0662 22.9835C93.4234 23.8024 93.102 25.0704 93.102 26.7877ZM112.352 26.7877C112.352 28.3163 112.673 29.4851 113.316 30.2941C113.959 31.1031 114.878 31.5076 116.075 31.5076C117.239 31.5076 118.148 31.108 118.801 30.309C119.455 29.5099 119.782 28.2319 119.782 26.475C119.782 24.9761 119.455 23.8148 118.801 22.9909C118.148 22.1671 117.228 21.7551 116.042 21.7551C114.867 21.7551 113.959 22.1646 113.316 22.9835C112.673 23.8024 112.352 25.0704 112.352 26.7877Z" fill="white"/>
</g>
</svg>
